<mxfile host="app.diagrams.net" modified="2023-12-05T14:33:50.373Z" agent="Mozilla/5.0 (Windows NT 10.0; Win64; x64) AppleWebKit/537.36 (KHTML, like Gecko) Chrome/118.0.0.0 Safari/537.36" etag="CEMOuUd7jvqCiMBk0lgn" version="22.1.5" type="device">
  <diagram name="PÃ¡gina-1" id="cPSNi7r_4B1eX6Dvwcpm">
    <mxGraphModel dx="1399" dy="802" grid="1" gridSize="10" guides="1" tooltips="1" connect="1" arrows="1" fold="1" page="1" pageScale="1" pageWidth="850" pageHeight="1100" math="0" shadow="0">
      <root>
        <mxCell id="0" />
        <mxCell id="1" parent="0" />
        <mxCell id="kJ0N3xMDDwHSWVkwNIKp-16" style="edgeStyle=none;curved=1;rounded=0;orthogonalLoop=1;jettySize=auto;html=1;exitX=0.5;exitY=0;exitDx=0;exitDy=0;fontSize=12;startSize=8;endSize=8;endArrow=none;endFill=0;" edge="1" parent="1" source="kJ0N3xMDDwHSWVkwNIKp-15">
          <mxGeometry relative="1" as="geometry">
            <mxPoint x="150" y="80" as="targetPoint" />
          </mxGeometry>
        </mxCell>
        <mxCell id="kJ0N3xMDDwHSWVkwNIKp-18" style="edgeStyle=none;curved=1;rounded=0;orthogonalLoop=1;jettySize=auto;html=1;exitX=1;exitY=0.5;exitDx=0;exitDy=0;fontSize=12;startSize=8;endSize=8;entryX=0;entryY=0.5;entryDx=0;entryDy=0;" edge="1" parent="1" source="kJ0N3xMDDwHSWVkwNIKp-15" target="kJ0N3xMDDwHSWVkwNIKp-19">
          <mxGeometry relative="1" as="geometry">
            <mxPoint x="380" y="210" as="targetPoint" />
          </mxGeometry>
        </mxCell>
        <mxCell id="kJ0N3xMDDwHSWVkwNIKp-21" style="edgeStyle=orthogonalEdgeStyle;rounded=0;orthogonalLoop=1;jettySize=auto;html=1;exitX=0.75;exitY=1;exitDx=0;exitDy=0;fontSize=12;startSize=8;endSize=8;entryX=0;entryY=0.5;entryDx=0;entryDy=0;" edge="1" parent="1" source="kJ0N3xMDDwHSWVkwNIKp-15" target="kJ0N3xMDDwHSWVkwNIKp-22">
          <mxGeometry relative="1" as="geometry">
            <mxPoint x="280" y="360" as="targetPoint" />
            <Array as="points">
              <mxPoint x="195" y="360" />
            </Array>
          </mxGeometry>
        </mxCell>
        <mxCell id="kJ0N3xMDDwHSWVkwNIKp-24" style="edgeStyle=none;curved=1;rounded=0;orthogonalLoop=1;jettySize=auto;html=1;exitX=0.5;exitY=1;exitDx=0;exitDy=0;fontSize=12;startSize=8;endSize=8;entryX=0.5;entryY=0;entryDx=0;entryDy=0;" edge="1" parent="1" source="kJ0N3xMDDwHSWVkwNIKp-15" target="kJ0N3xMDDwHSWVkwNIKp-25">
          <mxGeometry relative="1" as="geometry">
            <mxPoint x="160" y="490" as="targetPoint" />
          </mxGeometry>
        </mxCell>
        <mxCell id="kJ0N3xMDDwHSWVkwNIKp-15" value=":EtapaProjetoManager" style="rounded=0;whiteSpace=wrap;html=1;fontSize=16;" vertex="1" parent="1">
          <mxGeometry x="60" y="180" width="180" height="60" as="geometry" />
        </mxCell>
        <mxCell id="kJ0N3xMDDwHSWVkwNIKp-17" value="&lt;font style=&quot;font-size: 14px;&quot;&gt;createProjectStage(stageId, projectId)&lt;/font&gt;" style="text;html=1;align=center;verticalAlign=middle;resizable=0;points=[];autosize=1;strokeColor=none;fillColor=none;fontSize=16;" vertex="1" parent="1">
          <mxGeometry x="20" y="50" width="260" height="30" as="geometry" />
        </mxCell>
        <mxCell id="kJ0N3xMDDwHSWVkwNIKp-19" value=":DaoManager" style="rounded=0;whiteSpace=wrap;html=1;fontSize=16;" vertex="1" parent="1">
          <mxGeometry x="450" y="180" width="180" height="60" as="geometry" />
        </mxCell>
        <mxCell id="kJ0N3xMDDwHSWVkwNIKp-20" value="1. getEtapaProjetoDAO()" style="text;html=1;align=center;verticalAlign=middle;resizable=0;points=[];autosize=1;strokeColor=none;fillColor=none;fontSize=16;" vertex="1" parent="1">
          <mxGeometry x="240" y="178" width="200" height="30" as="geometry" />
        </mxCell>
        <mxCell id="kJ0N3xMDDwHSWVkwNIKp-22" value=":EtapaProjetoDAO" style="rounded=0;whiteSpace=wrap;html=1;fontSize=16;" vertex="1" parent="1">
          <mxGeometry x="290" y="330" width="180" height="60" as="geometry" />
        </mxCell>
        <mxCell id="kJ0N3xMDDwHSWVkwNIKp-23" value="2. etapaProj := create(stageId, projectId)" style="text;html=1;align=center;verticalAlign=middle;resizable=0;points=[];autosize=1;strokeColor=none;fillColor=none;fontSize=16;" vertex="1" parent="1">
          <mxGeometry x="210" y="280" width="310" height="30" as="geometry" />
        </mxCell>
        <mxCell id="kJ0N3xMDDwHSWVkwNIKp-25" value="etapaProj: EtapaProjeto" style="rounded=0;whiteSpace=wrap;html=1;fontSize=16;" vertex="1" parent="1">
          <mxGeometry x="70" y="500" width="180" height="60" as="geometry" />
        </mxCell>
        <mxCell id="kJ0N3xMDDwHSWVkwNIKp-26" value="3. setStage(stageId)" style="text;html=1;align=center;verticalAlign=middle;resizable=0;points=[];autosize=1;strokeColor=none;fillColor=none;fontSize=16;" vertex="1" parent="1">
          <mxGeometry x="160" y="408" width="170" height="30" as="geometry" />
        </mxCell>
        <mxCell id="kJ0N3xMDDwHSWVkwNIKp-27" value="4. setProject(projectId)" style="text;html=1;align=center;verticalAlign=middle;resizable=0;points=[];autosize=1;strokeColor=none;fillColor=none;fontSize=16;" vertex="1" parent="1">
          <mxGeometry x="164" y="433" width="180" height="30" as="geometry" />
        </mxCell>
      </root>
    </mxGraphModel>
  </diagram>
</mxfile>
